<?xml version="1.0" encoding="UTF-8" standalone="no"?>
<!DOCTYPE svg PUBLIC "-//W3C//DTD SVG 1.1//EN" "http://www.w3.org/Graphics/SVG/1.1/DTD/svg11.dtd">
<svg width="100%" height="100%" viewBox="0 0 1301 495" version="1.1" xmlns="http://www.w3.org/2000/svg" xmlns:xlink="http://www.w3.org/1999/xlink" xml:space="preserve" style="fill-rule:evenodd;clip-rule:evenodd;stroke-linejoin:round;stroke-miterlimit:2;">
    <g transform="matrix(1,0,0,1,-611,-611)">
        <g transform="matrix(517.933,0,0,517.933,581,1100)">
            <path d="M0.453,0.005C0.374,0.005 0.305,-0.01 0.246,-0.039C0.187,-0.068 0.142,-0.109 0.111,-0.162C0.08,-0.215 0.064,-0.277 0.064,-0.348C0.064,-0.446 0.083,-0.533 0.119,-0.609C0.157,-0.685 0.207,-0.744 0.27,-0.786C0.333,-0.827 0.404,-0.848 0.481,-0.848C0.553,-0.848 0.608,-0.83 0.645,-0.793C0.682,-0.755 0.701,-0.707 0.701,-0.646C0.701,-0.605 0.694,-0.573 0.68,-0.548C0.665,-0.523 0.645,-0.511 0.618,-0.511C0.599,-0.511 0.585,-0.515 0.574,-0.524C0.563,-0.533 0.558,-0.545 0.558,-0.562C0.558,-0.568 0.559,-0.579 0.562,-0.595C0.566,-0.615 0.568,-0.631 0.568,-0.643C0.568,-0.704 0.536,-0.734 0.471,-0.734C0.427,-0.734 0.385,-0.72 0.345,-0.691C0.305,-0.662 0.273,-0.62 0.248,-0.565C0.223,-0.509 0.211,-0.443 0.211,-0.366C0.211,-0.286 0.233,-0.224 0.278,-0.181C0.323,-0.137 0.389,-0.115 0.476,-0.115C0.519,-0.115 0.563,-0.121 0.608,-0.132C0.652,-0.142 0.701,-0.159 0.755,-0.182C0.765,-0.186 0.773,-0.188 0.78,-0.188C0.791,-0.188 0.799,-0.184 0.804,-0.176C0.809,-0.168 0.812,-0.158 0.812,-0.145C0.812,-0.104 0.79,-0.074 0.746,-0.055C0.699,-0.034 0.65,-0.019 0.599,-0.01C0.548,0 0.499,0.005 0.453,0.005Z" style="fill:rgb(66,153,225);fill-rule:nonzero;"/>
        </g>
        <g transform="matrix(517.933,0,0,517.933,936.302,1100)">
            <path d="M0.603,-0.223C0.612,-0.223 0.619,-0.219 0.624,-0.211C0.628,-0.203 0.631,-0.192 0.631,-0.178C0.631,-0.151 0.625,-0.131 0.612,-0.116C0.581,-0.081 0.55,-0.052 0.518,-0.029C0.485,-0.006 0.448,0.005 0.407,0.005C0.373,0.005 0.347,-0.005 0.33,-0.025C0.313,-0.044 0.304,-0.073 0.304,-0.11C0.304,-0.129 0.309,-0.162 0.318,-0.21C0.327,-0.252 0.331,-0.281 0.331,-0.297C0.331,-0.308 0.327,-0.313 0.32,-0.313C0.311,-0.313 0.299,-0.302 0.283,-0.28C0.267,-0.257 0.251,-0.228 0.235,-0.191C0.219,-0.154 0.206,-0.116 0.196,-0.075C0.183,-0.022 0.152,0.005 0.102,0.005C0.082,0.005 0.069,-0.002 0.063,-0.017C0.056,-0.031 0.053,-0.057 0.053,-0.094C0.053,-0.115 0.053,-0.132 0.054,-0.145L0.055,-0.225C0.055,-0.328 0.066,-0.435 0.086,-0.546C0.108,-0.657 0.139,-0.751 0.18,-0.827C0.221,-0.902 0.27,-0.94 0.327,-0.94C0.358,-0.94 0.383,-0.927 0.402,-0.901C0.421,-0.874 0.43,-0.84 0.43,-0.798C0.43,-0.731 0.41,-0.661 0.371,-0.589C0.332,-0.516 0.268,-0.432 0.179,-0.335C0.177,-0.3 0.176,-0.265 0.176,-0.228C0.198,-0.285 0.223,-0.331 0.25,-0.367C0.277,-0.402 0.303,-0.428 0.33,-0.443C0.356,-0.458 0.38,-0.466 0.402,-0.466C0.445,-0.466 0.467,-0.444 0.467,-0.401C0.467,-0.375 0.46,-0.328 0.445,-0.26C0.432,-0.202 0.426,-0.164 0.426,-0.145C0.426,-0.118 0.436,-0.105 0.455,-0.105C0.468,-0.105 0.484,-0.113 0.502,-0.13C0.521,-0.146 0.545,-0.172 0.576,-0.209C0.584,-0.218 0.593,-0.223 0.603,-0.223ZM0.306,-0.841C0.294,-0.841 0.281,-0.824 0.266,-0.79C0.251,-0.755 0.237,-0.709 0.224,-0.651C0.21,-0.592 0.199,-0.529 0.19,-0.46C0.231,-0.509 0.266,-0.562 0.293,-0.619C0.32,-0.676 0.333,-0.728 0.333,-0.775C0.333,-0.796 0.331,-0.813 0.326,-0.824C0.321,-0.835 0.315,-0.841 0.306,-0.841Z" style="fill:rgb(66,153,225);fill-rule:nonzero;"/>
        </g>
        <g transform="matrix(517.933,0,0,517.933,1196.3,1100)">
            <path d="M0.15,0.005C0.12,0.005 0.096,-0.009 0.077,-0.037C0.058,-0.064 0.048,-0.099 0.048,-0.14C0.048,-0.19 0.051,-0.236 0.058,-0.278C0.065,-0.319 0.076,-0.363 0.091,-0.41C0.098,-0.43 0.107,-0.444 0.119,-0.453C0.131,-0.462 0.15,-0.466 0.176,-0.466C0.191,-0.466 0.201,-0.464 0.206,-0.459C0.212,-0.454 0.215,-0.447 0.215,-0.438C0.215,-0.433 0.211,-0.415 0.204,-0.384C0.197,-0.359 0.192,-0.337 0.188,-0.317C0.175,-0.247 0.168,-0.2 0.168,-0.177C0.168,-0.163 0.17,-0.153 0.173,-0.148C0.176,-0.142 0.182,-0.139 0.189,-0.139C0.199,-0.139 0.212,-0.149 0.227,-0.169C0.242,-0.189 0.258,-0.219 0.275,-0.26C0.292,-0.301 0.308,-0.351 0.324,-0.41C0.329,-0.43 0.338,-0.444 0.348,-0.453C0.36,-0.462 0.376,-0.466 0.398,-0.466C0.413,-0.466 0.424,-0.464 0.43,-0.461C0.436,-0.457 0.439,-0.45 0.439,-0.44C0.439,-0.423 0.431,-0.378 0.414,-0.303C0.395,-0.218 0.386,-0.165 0.386,-0.145C0.386,-0.132 0.389,-0.123 0.394,-0.116C0.399,-0.109 0.406,-0.105 0.415,-0.105C0.428,-0.105 0.444,-0.113 0.463,-0.13C0.481,-0.146 0.505,-0.172 0.536,-0.209C0.544,-0.218 0.553,-0.223 0.563,-0.223C0.572,-0.223 0.579,-0.219 0.584,-0.211C0.589,-0.203 0.591,-0.192 0.591,-0.178C0.591,-0.151 0.585,-0.131 0.572,-0.116C0.543,-0.081 0.513,-0.052 0.48,-0.029C0.447,-0.006 0.409,0.005 0.367,0.005C0.335,0.005 0.312,-0.007 0.297,-0.032C0.281,-0.057 0.274,-0.091 0.274,-0.136C0.263,-0.091 0.246,-0.056 0.223,-0.032C0.2,-0.007 0.176,0.005 0.15,0.005Z" style="fill:rgb(66,153,225);fill-rule:nonzero;"/>
        </g>
        <g transform="matrix(517.933,0,0,517.933,1435.59,1100)">
            <path d="M0.119,0.005C0.094,0.005 0.076,-0.008 0.066,-0.035C0.055,-0.062 0.05,-0.104 0.05,-0.163C0.05,-0.25 0.062,-0.332 0.087,-0.41C0.093,-0.429 0.103,-0.444 0.117,-0.453C0.13,-0.462 0.149,-0.466 0.174,-0.466C0.187,-0.466 0.197,-0.464 0.202,-0.461C0.207,-0.458 0.21,-0.451 0.21,-0.442C0.21,-0.431 0.205,-0.407 0.195,-0.37C0.188,-0.343 0.183,-0.32 0.179,-0.3C0.175,-0.28 0.172,-0.255 0.169,-0.226C0.191,-0.283 0.216,-0.33 0.243,-0.366C0.27,-0.402 0.297,-0.428 0.324,-0.443C0.35,-0.458 0.374,-0.466 0.396,-0.466C0.439,-0.466 0.461,-0.444 0.461,-0.401C0.461,-0.392 0.458,-0.371 0.452,-0.338C0.447,-0.311 0.444,-0.295 0.444,-0.288C0.444,-0.265 0.452,-0.253 0.469,-0.253C0.488,-0.253 0.512,-0.268 0.541,-0.297C0.55,-0.306 0.559,-0.31 0.568,-0.31C0.577,-0.31 0.584,-0.306 0.589,-0.299C0.594,-0.291 0.596,-0.281 0.596,-0.268C0.596,-0.243 0.589,-0.224 0.576,-0.21C0.557,-0.191 0.536,-0.174 0.51,-0.161C0.486,-0.147 0.459,-0.14 0.431,-0.14C0.396,-0.14 0.369,-0.149 0.35,-0.167C0.332,-0.185 0.323,-0.209 0.323,-0.24C0.323,-0.25 0.324,-0.26 0.326,-0.27C0.327,-0.283 0.328,-0.292 0.328,-0.297C0.328,-0.308 0.324,-0.313 0.317,-0.313C0.307,-0.313 0.294,-0.302 0.278,-0.28C0.261,-0.257 0.245,-0.228 0.229,-0.191C0.213,-0.154 0.2,-0.116 0.19,-0.075C0.183,-0.044 0.174,-0.023 0.165,-0.012C0.155,-0.001 0.14,0.005 0.119,0.005Z" style="fill:rgb(66,153,225);fill-rule:nonzero;"/>
        </g>
        <g transform="matrix(517.933,0,0,517.933,1671.25,1100)">
            <path d="M0.119,0.005C0.094,0.005 0.076,-0.008 0.066,-0.035C0.055,-0.062 0.05,-0.104 0.05,-0.163C0.05,-0.25 0.062,-0.332 0.087,-0.41C0.093,-0.429 0.103,-0.444 0.117,-0.453C0.13,-0.462 0.149,-0.466 0.174,-0.466C0.187,-0.466 0.197,-0.464 0.202,-0.461C0.207,-0.458 0.21,-0.451 0.21,-0.442C0.21,-0.431 0.205,-0.407 0.195,-0.37C0.188,-0.343 0.183,-0.32 0.179,-0.3C0.175,-0.28 0.172,-0.255 0.169,-0.226C0.191,-0.283 0.216,-0.33 0.243,-0.366C0.27,-0.402 0.297,-0.428 0.324,-0.443C0.35,-0.458 0.374,-0.466 0.396,-0.466C0.417,-0.466 0.434,-0.461 0.445,-0.45C0.456,-0.439 0.461,-0.422 0.461,-0.401C0.461,-0.384 0.457,-0.351 0.45,-0.303C0.443,-0.262 0.438,-0.224 0.434,-0.188C0.43,-0.151 0.428,-0.111 0.428,-0.066C0.428,-0.041 0.423,-0.023 0.412,-0.012C0.402,-0.001 0.385,0.005 0.362,0.005C0.34,0.005 0.324,-0.001 0.314,-0.012C0.304,-0.023 0.299,-0.04 0.299,-0.063C0.299,-0.09 0.304,-0.134 0.313,-0.195C0.321,-0.248 0.325,-0.282 0.325,-0.297C0.325,-0.308 0.321,-0.313 0.314,-0.313C0.305,-0.313 0.293,-0.302 0.278,-0.28C0.262,-0.257 0.246,-0.228 0.23,-0.191C0.213,-0.154 0.2,-0.116 0.19,-0.075C0.183,-0.044 0.174,-0.023 0.165,-0.012C0.155,-0.001 0.14,0.005 0.119,0.005Z" style="fill:rgb(66,153,225);fill-rule:nonzero;"/>
        </g>
    </g>
</svg>
